<?xml version="1.0" encoding="UTF-8"?>
<svg width="22px" height="13px" viewBox="0 0 22 13" version="1.1" xmlns="http://www.w3.org/2000/svg" xmlns:xlink="http://www.w3.org/1999/xlink">
    <!-- Generator: Sketch 50.2 (55047) - http://www.bohemiancoding.com/sketch -->
    <title>arrowRight</title>
    <desc>Created with Sketch.</desc>
    <defs></defs>
    <g id="↳-Home" stroke="none" stroke-width="1" fill="none" fill-rule="evenodd" opacity="0.5">
        <g id="Home----Banner" transform="translate(-1193.000000, -50.000000)" fill="#1A212B" fill-rule="nonzero">
            <g id="alertBar__greenBackground">
                <g id="alertBar" transform="translate(32.000000, 16.000000)">
                    <g id="button__white" transform="translate(1040.000000, 20.000000)">
                        <g id="arrowRight" transform="translate(116.000000, 4.000000)">
                            <g transform="translate(5.000000, 10.000000)" id="Combined-Shape">
                                <path d="M18.6893398,5.75 L14.9696699,2.03033009 C14.6767767,1.73743687 14.6767767,1.26256313 14.9696699,0.969669914 C15.2625631,0.676776695 15.7374369,0.676776695 16.0303301,0.969669914 L21.0303301,5.96966991 C21.3232233,6.26256313 21.3232233,6.73743687 21.0303301,7.03033009 L16.0303301,12.0303301 C15.7374369,12.3232233 15.2625631,12.3232233 14.9696699,12.0303301 C14.6767767,11.7374369 14.6767767,11.2625631 14.9696699,10.9696699 L18.6893398,7.25 L1.5,7.25 C1.08578644,7.25 0.75,6.91421356 0.75,6.5 C0.75,6.08578644 1.08578644,5.75 1.5,5.75 L18.6893398,5.75 Z"></path>
                            </g>
                        </g>
                    </g>
                </g>
            </g>
        </g>
    </g>
</svg>