<svg width="78px" height="69px" viewBox="0 0 78 69" version="1.1" xmlns="http://www.w3.org/2000/svg" xmlns:xlink="http://www.w3.org/1999/xlink">
    <g id="Page-1" stroke="none" stroke-width="1" fill="none" fill-rule="evenodd">
        <g id="KCC-homepage-mockup-01" transform="translate(-603.000000, -2781.000000)" fill="#EAB772">
            <g id="Group-3" transform="translate(603.847472, 2781.680000)">
                <g id="Envelope" transform="translate(31.177528, 19.670000)">
                    <polyline id="Fill-55" points="17.166 16.03 17.166 16.03 22.383 21.41 42.929 -5.68434189e-14 1.613 -5.68434189e-14 17.164 16.03 17.166 16.03"></polyline>
                    <polyline id="Fill-56" points="-5.68434189e-14 1.66 -5.68434189e-14 30.68 14.676 16.79 -5.68434189e-14 1.66"></polyline>
                    <path d="M28.493,18.39 L23.223,23.88 C23.006,24.11 22.704,24.24 22.39,24.24 L22.388,24.24 C22.076,24.24 21.775,24.11 21.556,23.88 L16.29,18.46 L1.686,32.27 L43.167,32.27 L28.493,18.39" id="Fill-57"></path>
                    <polyline id="Fill-58" points="30.097 16.71 44.533 30.38 44.533 1.67 30.097 16.71"></polyline>
                </g>
                <path d="M55.1745276,11.01 C48.3635276,2.05 27.9305276,0 27.9305276,0 C27.9305276,0 7.49852755,2.05 0.687527555,11.01 C0.687527555,11.01 -6.84147245,50.25 27.9305276,67.1 C32.6515276,64.81 40.4105276,58.69 40.9655276,58.18 L35.8095276,58.18 C33.6475276,59.66 29.6055276,62.38 27.9305276,63.26 C21.2755276,59.77 15.8895276,55.11 11.9035276,49.39 C8.46452755,44.46 6.03252755,38.7 4.67552755,32.27 C2.72152755,23.02 3.57152755,14.99 3.92652755,12.47 C9.10452755,6.74 22.7595276,3.64 27.9235276,3.44 L27.9375276,3.44 C33.1025276,3.64 46.7565276,6.74 51.9345276,12.47 C51.9775276,12.66 52.0675276,13.03 52.1735276,13.38 L55.6225276,13.38 C55.4235276,11.15 55.1745276,11.01 55.1745276,11.01" id="Fill-59"></path>
            </g>
        </g>
    </g>
</svg>