<?xml version="1.0" encoding="UTF-8"?>
<svg width="176px" height="74px" viewBox="0 0 176 74" version="1.1" xmlns="http://www.w3.org/2000/svg" xmlns:xlink="http://www.w3.org/1999/xlink">
    <title>Group 4</title>
    <g id="Page-1" stroke="none" stroke-width="1" fill="none" fill-rule="evenodd">
        <g id="KCC-homepage-mockup-01" transform="translate(-73.000000, -68.000000)" fill="#FFFFFE">
            <g id="Group-4" transform="translate(73.749711, 68.693000)">
                <polygon id="Fill-70" points="72.5062886 45.176 79.5982886 45.176 79.5982886 17.897 72.5062886 17.897"></polygon>
                <polyline id="Fill-71" points="83.6182886 45.176 83.6182886 17.897 90.7092886 17.897 103.806289 34.575 103.806289 17.897 110.861289 17.897 110.861289 45.176 103.806289 45.176 90.7092886 28.497 90.7092886 45.176 83.6182886 45.176"></polyline>
                <path d="M129.389289,29.908 L143.463289,29.908 C143.463289,31.355 143.403289,32.67 143.282289,33.852 C143.161289,35.034 142.920289,36.131 142.559289,37.144 C142.052289,38.568 141.365289,39.828 140.496289,40.925 C139.628289,42.023 138.609289,42.939 137.439289,43.675 C136.269289,44.411 134.984289,44.971 133.586289,45.357 C132.187289,45.742 130.715289,45.936 129.172289,45.936 C127.049289,45.936 125.114289,45.586 123.365289,44.887 C121.616289,44.187 120.114289,43.204 118.861289,41.938 C117.606289,40.672 116.629289,39.152 115.930289,37.38 C115.230289,35.607 114.881289,33.647 114.881289,31.5 C114.881289,29.378 115.225289,27.43 115.912289,25.657 C116.600289,23.885 117.576289,22.371 118.843289,21.116 C120.109289,19.862 121.634289,18.886 123.419289,18.186 C125.204289,17.486 127.194289,17.137 129.389289,17.137 C132.235289,17.137 134.731289,17.752 136.878289,18.982 C139.025289,20.212 140.725289,22.118 141.979289,24.699 L135.250289,27.484 C134.623289,25.989 133.809289,24.915 132.808289,24.265 C131.807289,23.613 130.667289,23.287 129.389289,23.287 C128.327289,23.287 127.363289,23.486 126.495289,23.885 C125.626289,24.282 124.885289,24.849 124.270289,25.585 C123.654289,26.321 123.172289,27.207 122.822289,28.244 C122.473289,29.281 122.298289,30.439 122.298289,31.717 C122.298289,32.875 122.448289,33.948 122.750289,34.937 C123.051289,35.926 123.504289,36.782 124.107289,37.506 C124.709289,38.23 125.458289,38.79 126.350289,39.188 C127.242289,39.586 128.279289,39.785 129.461289,39.785 C130.161289,39.785 130.836289,39.707 131.487289,39.55 C132.139289,39.394 132.723289,39.14 133.242289,38.79 C133.761289,38.441 134.188289,37.989 134.527289,37.434 C134.864289,36.879 135.093289,36.203 135.214289,35.407 L129.389289,35.407 L129.389289,29.908" id="Fill-72"></path>
                <path d="M153.347289,17.864 L153.347289,25.081 C153.378289,26.119 153.229289,27.094 152.899289,28.006 C152.568289,28.918 152.104289,29.72 151.507289,30.411 C150.910289,31.103 150.194289,31.677 149.361289,32.133 C148.527289,32.589 147.623289,32.88 146.649289,33.006 L146.649289,29.892 C147.844289,29.484 148.661289,28.878 149.102289,28.077 C149.542289,27.274 149.762289,26.292 149.762289,25.128 L146.649289,25.128 L146.649289,17.864 L153.347289,17.864" id="Fill-73"></path>
                <path d="M170.944289,24.879 C170.172289,24.252 169.400289,23.788 168.628289,23.486 C167.856289,23.185 167.109289,23.034 166.385289,23.034 C165.469289,23.034 164.721289,23.251 164.142289,23.685 C163.563289,24.119 163.274289,24.687 163.274289,25.386 C163.274289,25.868 163.418289,26.266 163.708289,26.58 C163.998289,26.893 164.377289,27.165 164.848289,27.394 C165.318289,27.623 165.848289,27.822 166.439289,27.991 C167.030289,28.16 167.615289,28.341 168.194289,28.534 C170.510289,29.306 172.204289,30.337 173.278289,31.627 C174.351289,32.917 174.888289,34.6 174.888289,36.674 C174.888289,38.073 174.652289,39.339 174.182289,40.473 C173.712289,41.607 173.024289,42.577 172.120289,43.385 C171.215289,44.194 170.106289,44.821 168.792289,45.267 C167.477289,45.713 165.987289,45.936 164.323289,45.936 C160.874289,45.936 157.678289,44.911 154.735289,42.861 L157.774289,37.144 C158.836289,38.085 159.885289,38.785 160.922289,39.243 C161.959289,39.701 162.984289,39.93 163.998289,39.93 C165.155289,39.93 166.018289,39.665 166.584289,39.134 C167.151289,38.604 167.435289,38.001 167.435289,37.325 C167.435289,36.915 167.362289,36.56 167.217289,36.258 C167.073289,35.956 166.832289,35.679 166.494289,35.426 C166.156289,35.173 165.716289,34.937 165.173289,34.72 C164.631289,34.503 163.973289,34.262 163.202289,33.997 C162.285289,33.707 161.386289,33.388 160.506289,33.038 C159.625289,32.689 158.842289,32.224 158.154289,31.645 C157.467289,31.066 156.912289,30.337 156.490289,29.456 C156.068289,28.576 155.857289,27.461 155.857289,26.11 C155.857289,24.759 156.080289,23.535 156.526289,22.437 C156.973289,21.34 157.599289,20.399 158.408289,19.615 C159.216289,18.832 160.204289,18.222 161.375289,17.788 C162.544289,17.354 163.853289,17.137 165.300289,17.137 C166.650289,17.137 168.062289,17.324 169.533289,17.697 C171.004289,18.072 172.415289,18.62 173.766289,19.344 L170.944289,24.879" id="Fill-74"></path>
                <path d="M48.0672886,54.302 C47.4752886,53.579 46.7432886,53.218 45.8712886,53.218 C45.4872886,53.218 45.1322886,53.287 44.8052886,53.426 C44.4792886,53.566 44.1972886,53.756 43.9622886,53.995 C43.7272886,54.235 43.5422886,54.521 43.4062886,54.852 C43.2712886,55.183 43.2042886,55.54 43.2042886,55.924 C43.2042886,56.316 43.2712886,56.678 43.4062886,57.009 C43.5422886,57.341 43.7292886,57.628 43.9692886,57.872 C44.2082886,58.116 44.4892886,58.308 44.8122886,58.447 C45.1342886,58.587 45.4832886,58.656 45.8582886,58.656 C46.6772886,58.656 47.4142886,58.308 48.0672886,57.611 L48.0672886,60.644 L47.8062886,60.736 C47.4142886,60.875 47.0482886,60.977 46.7082886,61.043 C46.3682886,61.108 46.0322886,61.141 45.7012886,61.141 C45.0212886,61.141 44.3702886,61.012 43.7462886,60.755 C43.1232886,60.498 42.5742886,60.136 42.0992886,59.67 C41.6242886,59.204 41.2422886,58.65 40.9552886,58.01 C40.6672886,57.368 40.5232886,56.669 40.5232886,55.911 C40.5232886,55.153 40.6652886,54.457 40.9482886,53.825 C41.2312886,53.194 41.6102886,52.649 42.0852886,52.191 C42.5612886,51.733 43.1122886,51.376 43.7402886,51.119 C44.3672886,50.862 45.0252886,50.733 45.7142886,50.733 C46.1062886,50.733 46.4922886,50.775 46.8712886,50.857 C47.2502886,50.94 47.6492886,51.069 48.0672886,51.243 L48.0672886,54.302" id="Fill-75"></path>
                <path d="M57.3502886,55.937 C57.3502886,56.329 57.4242886,56.691 57.5732886,57.022 C57.7212886,57.354 57.9212886,57.641 58.1742886,57.885 C58.4272886,58.129 58.7212886,58.319 59.0572886,58.454 C59.3922886,58.589 59.7482886,58.656 60.1222886,58.656 C60.4972886,58.656 60.8522886,58.589 61.1882886,58.454 C61.5232886,58.319 61.8192886,58.129 62.0772886,57.885 C62.3342886,57.641 62.5372886,57.354 62.6852886,57.022 C62.8332886,56.691 62.9072886,56.329 62.9072886,55.937 C62.9072886,55.545 62.8332886,55.183 62.6852886,54.852 C62.5372886,54.521 62.3342886,54.233 62.0772886,53.989 C61.8192886,53.745 61.5232886,53.555 61.1882886,53.42 C60.8522886,53.285 60.4972886,53.218 60.1222886,53.218 C59.7482886,53.218 59.3922886,53.285 59.0572886,53.42 C58.7212886,53.555 58.4272886,53.745 58.1742886,53.989 C57.9212886,54.233 57.7212886,54.521 57.5732886,54.852 C57.4242886,55.183 57.3502886,55.545 57.3502886,55.937 Z M54.6702886,55.937 C54.6702886,55.205 54.8052886,54.523 55.0752886,53.891 C55.3452886,53.259 55.7202886,52.707 56.2002886,52.237 C56.6792886,51.766 57.2522886,51.398 57.9192886,51.132 C58.5862886,50.866 59.3202886,50.733 60.1222886,50.733 C60.9152886,50.733 61.6472886,50.866 62.3192886,51.132 C62.9902886,51.398 63.5672886,51.766 64.0512886,52.237 C64.5352886,52.707 64.9122886,53.259 65.1822886,53.891 C65.4522886,54.523 65.5872886,55.205 65.5872886,55.937 C65.5872886,56.669 65.4522886,57.351 65.1822886,57.983 C64.9122886,58.615 64.5352886,59.167 64.0512886,59.637 C63.5672886,60.108 62.9902886,60.476 62.3192886,60.742 C61.6472886,61.008 60.9152886,61.141 60.1222886,61.141 C59.3202886,61.141 58.5862886,61.008 57.9192886,60.742 C57.2522886,60.476 56.6792886,60.108 56.2002886,59.637 C55.7202886,59.167 55.3452886,58.615 55.0752886,57.983 C54.8052886,57.351 54.6702886,56.669 54.6702886,55.937 L54.6702886,55.937 Z" id="Fill-76"></path>
                <polyline id="Fill-77" points="72.1902886 60.866 73.8642886 51.008 76.4002886 51.008 78.3752886 56.264 80.3362886 51.008 82.8732886 51.008 84.5462886 60.866 81.9962886 60.866 81.1462886 55.192 78.8192886 60.866 77.7992886 60.866 75.5892886 55.192 74.7392886 60.866 72.1902886 60.866"></polyline>
                <polyline id="Fill-78" points="91.1482886 60.866 92.8222886 51.008 95.3582886 51.008 97.3332886 56.264 99.2942886 51.008 101.831289 51.008 103.504289 60.866 100.955289 60.866 100.105289 55.192 97.7772886 60.866 96.7572886 60.866 94.5482886 55.192 93.6982886 60.866 91.1482886 60.866"></polyline>
                <path d="M112.669289,51.008 L112.669289,56.368 C112.669289,56.656 112.680289,56.95 112.702289,57.251 C112.724289,57.552 112.789289,57.824 112.898289,58.068 C113.007289,58.312 113.179289,58.51 113.415289,58.663 C113.650289,58.816 113.981289,58.892 114.408289,58.892 C114.835289,58.892 115.165289,58.816 115.396289,58.663 C115.626289,58.51 115.799289,58.312 115.912289,58.068 C116.025289,57.824 116.093289,57.552 116.115289,57.251 C116.136289,56.95 116.147289,56.656 116.147289,56.368 L116.147289,51.008 L118.697289,51.008 L118.697289,56.721 C118.697289,58.256 118.346289,59.376 117.645289,60.082 C116.943289,60.788 115.864289,61.141 114.408289,61.141 C112.953289,61.141 111.872289,60.788 111.166289,60.082 C110.459289,59.376 110.106289,58.256 110.106289,56.721 L110.106289,51.008 L112.669289,51.008" id="Fill-79"></path>
                <polyline id="Fill-80" points="125.299289 60.866 125.299289 51.008 127.862289 51.008 132.595289 57.035 132.595289 51.008 135.145289 51.008 135.145289 60.866 132.595289 60.866 127.862289 54.839 127.862289 60.866 125.299289 60.866"></polyline>
                <polygon id="Fill-81" points="141.747289 60.866 144.310289 60.866 144.310289 51.008 141.747289 51.008"></polygon>
                <polyline id="Fill-82" points="155.581289 53.178 155.581289 60.866 153.018289 60.866 153.018289 53.178 150.913289 53.178 150.913289 51.008 157.686289 51.008 157.686289 53.178 155.581289 53.178"></polyline>
                <polyline id="Fill-83" points="167.883289 56.133 164.288289 51.008 167.347289 51.008 169.178289 53.701 170.995289 51.008 174.055289 51.008 170.446289 56.133 170.446289 60.866 167.883289 60.866 167.883289 56.133"></polyline>
                <polyline id="Fill-84" points="68.4862886 17.864 59.8972886 17.864 48.2982886 31.399 48.2982886 17.864 41.1842886 17.864 41.1842886 45.176 48.2982886 45.176 48.2982886 41.393 53.2152886 35.351 59.8972886 45.176 68.4862886 45.176 57.8532886 30.43 68.4862886 17.864"></polyline>
                <path d="M40.1662886,61.699 C40.1662886,61.699 32.6512886,66.916 30.1302886,68.238 C22.9512886,64.474 17.1412886,59.447 12.8422886,53.277 C9.13128857,47.951 6.50828857,41.738 5.04428857,34.808 C2.93628857,24.832 3.85428857,16.164 4.23728857,13.448 C9.82228857,7.267 24.5522886,3.928 30.1232886,3.702 L30.1372886,3.702 C35.7082886,3.928 50.4382886,7.267 56.0242886,13.448 C56.0992886,13.976 56.1932886,13.483 56.2822886,14.428 L60.0022886,14.428 C59.7882886,12.025 59.5192886,11.872 59.5192886,11.872 C52.1722886,2.204 30.1302886,0 30.1302886,0 C30.1302886,0 8.08928857,2.204 0.741288567,11.872 C0.741288567,11.872 -7.37871143,54.205 30.1302886,72.38 C35.2232886,69.913 39.4722886,66.999 43.0172886,63.808 C43.0172886,63.808 40.5232886,63.106 40.1662886,61.699" id="Fill-85"></path>
            </g>
        </g>
    </g>
</svg>