<svg class="logo-alt" width="303px" height="69px" viewBox="0 0 303 69" preserveAspectRatio="xMinYMid" version="1.1" xmlns="http://www.w3.org/2000/svg" xmlns:xlink="http://www.w3.org/1999/xlink">
    <g id="↳-Logos-&amp;-Colors" stroke="none" stroke-width="1" fill="none" fill-rule="evenodd">
        <g id="Branding-/-Logos-/-Words-/-Black" fill="#273040">
            <g id="Group">
                <polygon id="Fill-1" points="29.667 45.293 38.333 45.293 38.333 12.069 29.667 12.069"></polygon>
                <path d="M34.035,0.462 C32.835,0.462 31.806,0.892 30.946,1.751 C30.087,2.611 29.657,3.63 29.657,4.81 C29.657,6.05 30.087,7.099 30.946,7.958 C31.806,8.819 32.845,9.249 34.065,9.249 C35.284,9.249 36.313,8.819 37.153,7.958 C38.013,7.099 38.442,6.06 38.442,4.84 C38.442,3.621 38.013,2.591 37.153,1.751 C36.294,0.892 35.255,0.462 34.035,0.462" id="Fill-2"></path>
                <polyline id="Fill-3" points="62.631 31.476 56.243 12.069 43.962 12.069 57.227 45.539 67.851 45.539 81.116 12.069 69.018 12.069 62.631 31.476"></polyline>
                <path d="M96.53,21.557 C97.513,20.473 98.782,19.93 100.338,19.93 C101.935,19.93 103.245,20.473 104.269,21.557 C105.291,22.643 105.905,24.106 106.11,25.949 L94.565,25.949 C94.893,24.106 95.548,22.643 96.53,21.557 Z M115.753,39.336 L109.304,33.994 C108.116,35.181 106.94,36.042 105.772,36.573 C104.606,37.105 103.326,37.372 101.935,37.372 C100.093,37.372 98.546,36.921 97.298,36.02 C96.049,35.12 95.199,33.748 94.749,31.906 L116.981,31.906 C117.021,31.497 117.042,31.087 117.042,30.677 C117.042,30.268 117.042,29.879 117.042,29.51 C117.042,27.054 116.704,24.731 116.028,22.541 C115.354,20.35 114.329,18.425 112.958,16.767 C111.586,15.109 109.847,13.789 107.738,12.806 C105.629,11.824 103.142,11.333 100.276,11.333 C97.819,11.333 95.567,11.784 93.52,12.683 C91.474,13.585 89.703,14.824 88.209,16.399 C86.714,17.975 85.558,19.818 84.739,21.926 C83.92,24.035 83.511,26.296 83.511,28.712 L83.511,28.835 C83.511,31.415 83.95,33.769 84.831,35.897 C85.712,38.027 86.939,39.838 88.517,41.333 C90.092,42.828 91.965,43.994 94.136,44.832 C96.305,45.672 98.7,46.092 101.32,46.092 C104.637,46.092 107.472,45.479 109.826,44.25 C112.181,43.022 114.155,41.384 115.753,39.336 Z" id="Fill-4"></path>
                <path d="M185.225,28.834 C185.225,29.809 185.061,30.743 184.733,31.636 C184.405,32.529 183.944,33.311 183.352,33.981 C182.758,34.651 182.032,35.178 181.172,35.564 C180.311,35.95 179.35,36.143 178.286,36.143 C177.26,36.143 176.319,35.941 175.459,35.534 C174.6,35.127 173.852,34.589 173.219,33.919 C172.583,33.25 172.092,32.469 171.745,31.576 C171.397,30.682 171.223,29.727 171.223,28.712 L171.223,28.59 C171.223,27.617 171.385,26.682 171.713,25.79 C172.042,24.896 172.502,24.114 173.096,23.444 C173.688,22.774 174.417,22.246 175.276,21.86 C176.135,21.474 177.096,21.281 178.163,21.281 C179.186,21.281 180.127,21.485 180.987,21.89 C181.846,22.297 182.594,22.835 183.229,23.504 C183.864,24.174 184.354,24.957 184.702,25.85 C185.049,26.743 185.225,27.697 185.225,28.712 L185.225,28.834 Z M195.204,35.437 C196.125,33.329 196.586,31.087 196.586,28.712 L196.586,28.589 C196.586,26.215 196.135,23.983 195.235,21.895 C194.334,19.807 193.065,17.986 191.428,16.429 C189.79,14.875 187.854,13.635 185.624,12.714 C183.391,11.793 180.946,11.333 178.286,11.333 C175.624,11.333 173.167,11.793 170.915,12.714 C168.663,13.635 166.719,14.884 165.081,16.46 C163.444,18.037 162.165,19.879 161.243,21.988 C160.323,24.096 159.862,26.338 159.862,28.712 L159.862,28.835 C159.862,31.21 160.311,33.441 161.211,35.529 C162.112,37.617 163.381,39.45 165.02,41.025 C166.657,42.602 168.592,43.84 170.823,44.74 C173.055,45.641 175.5,46.092 178.163,46.092 C180.823,46.092 183.28,45.631 185.532,44.711 C187.784,43.789 189.727,42.541 191.366,40.964 C193.002,39.388 194.284,37.545 195.204,35.437 Z" id="Fill-5"></path>
                <path d="M219.37,37.249 C218.305,38.231 216.913,38.722 215.194,38.722 C214.006,38.722 213.022,38.406 212.247,37.77 C211.467,37.136 211.079,36.246 211.079,35.099 L211.079,34.976 C211.079,33.748 211.54,32.755 212.461,31.998 C213.381,31.241 214.702,30.862 216.422,30.862 C217.282,30.862 218.11,30.944 218.909,31.107 C219.708,31.271 220.393,31.476 220.965,31.721 L220.965,33.256 C220.965,34.936 220.434,36.266 219.37,37.249 Z M232.327,45.293 L232.327,26.194 C232.327,23.861 232.051,21.825 231.499,20.084 C230.946,18.344 230.034,16.86 228.766,15.631 C227.456,14.322 225.766,13.319 223.7,12.622 C221.631,11.926 219.102,11.578 216.114,11.578 C213.249,11.578 210.76,11.814 208.653,12.285 C206.543,12.755 204.547,13.38 202.665,14.158 L205.061,22.386 C206.534,21.814 207.987,21.364 209.42,21.036 C210.854,20.709 212.45,20.544 214.211,20.544 C216.461,20.544 218.131,21.015 219.215,21.957 C220.301,22.899 220.844,24.229 220.844,25.949 L220.844,26.502 C219.901,26.174 218.725,25.877 217.313,25.611 C215.899,25.345 214.415,25.211 212.86,25.211 C210.895,25.211 209.114,25.437 207.516,25.887 C205.92,26.338 204.559,26.993 203.432,27.852 C202.307,28.712 201.426,29.797 200.792,31.107 C200.157,32.418 199.84,33.932 199.84,35.652 L199.84,35.775 C199.84,37.454 200.125,38.927 200.7,40.196 C201.274,41.465 202.061,42.529 203.065,43.391 C204.067,44.25 205.245,44.904 206.596,45.356 C207.948,45.805 209.42,46.031 211.018,46.031 C213.229,46.031 215.122,45.652 216.698,44.895 C218.274,44.137 219.635,43.123 220.782,41.854 L220.782,45.293 L232.327,45.293 Z" id="Fill-6"></path>
                <polyline id="Fill-7" points="260.7 25.396 272.245 12.069 259.042 12.069 250.014 23.185 250.014 0.462 238.284 0.462 238.284 45.293 250.014 45.293 250.014 37.494 253.024 33.994 259.717 45.293 272.553 45.293 260.7 25.396"></polyline>
                <g id="Group-11" transform="translate(0.000000, 11.000000)">
                    <path d="M301.17,19.677 C300.557,18.532 299.717,17.558 298.653,16.76 C297.588,15.961 296.338,15.287 294.907,14.734 C293.473,14.181 291.938,13.68 290.301,13.229 C288.54,12.698 287.2,12.237 286.278,11.847 C285.356,11.459 284.897,10.937 284.897,10.281 L284.897,10.159 C284.897,9.709 285.122,9.33 285.571,9.022 C286.022,8.715 286.698,8.562 287.598,8.562 C288.909,8.562 290.444,8.838 292.204,9.391 C293.963,9.944 295.706,10.691 297.424,11.632 L301.417,4.263 C299.491,3.035 297.342,2.083 294.967,1.407 C292.592,0.732 290.178,0.394 287.721,0.394 C285.795,0.394 284.026,0.639 282.409,1.13 C280.792,1.622 279.389,2.329 278.202,3.25 C277.014,4.17 276.084,5.317 275.409,6.689 C274.733,8.061 274.395,9.627 274.395,11.386 L274.395,11.509 C274.395,13.189 274.702,14.601 275.315,15.747 C275.93,16.894 276.768,17.866 277.834,18.664 C278.897,19.462 280.147,20.138 281.581,20.691 C283.012,21.244 284.547,21.725 286.186,22.134 C287.946,22.626 289.276,23.055 290.178,23.423 C291.079,23.792 291.528,24.304 291.528,24.959 L291.528,25.082 C291.528,26.27 290.545,26.863 288.581,26.863 C286.862,26.863 285.008,26.545 283.024,25.911 C281.038,25.277 279.083,24.325 277.159,23.055 L272.797,30.118 C275.131,31.797 277.629,33.035 280.29,33.832 C282.952,34.631 285.694,35.031 288.52,35.031 C290.526,35.031 292.368,34.795 294.047,34.324 C295.725,33.854 297.157,33.148 298.346,32.205 C299.532,31.264 300.454,30.108 301.11,28.736 C301.764,27.365 302.092,25.757 302.092,23.915 L302.092,23.792 C302.092,22.195 301.784,20.824 301.17,19.677" id="Fill-8"></path>
                    <path d="M9.54,56.01 C8.847,56.363 8.02,56.541 7.06,56.541 C6.286,56.541 5.57,56.391 4.91,56.09 C4.25,55.791 3.677,55.381 3.19,54.859 C2.703,54.34 2.323,53.731 2.05,53.029 C1.777,52.33 1.64,51.574 1.64,50.76 L1.64,50.721 C1.64,49.92 1.777,49.17 2.05,48.471 C2.323,47.77 2.703,47.16 3.19,46.641 C3.677,46.121 4.25,45.713 4.91,45.42 C5.57,45.127 6.286,44.981 7.06,44.981 C8.02,44.981 8.843,45.16 9.53,45.52 C10.217,45.881 10.86,46.34 11.46,46.9 L12.54,45.74 C12.193,45.406 11.833,45.104 11.46,44.83 C11.087,44.557 10.681,44.324 10.24,44.131 C9.8,43.938 9.323,43.787 8.81,43.68 C8.297,43.574 7.72,43.52 7.08,43.52 C6.054,43.52 5.107,43.711 4.24,44.09 C3.373,44.471 2.626,44.99 2,45.65 C1.373,46.311 0.883,47.08 0.53,47.961 C0.177,48.84 0,49.773 0,50.76 L0,50.801 C0,51.801 0.177,52.74 0.53,53.621 C0.883,54.5 1.373,55.264 2,55.91 C2.626,56.557 3.367,57.066 4.22,57.439 C5.073,57.813 6.007,58 7.021,58 C7.66,58 8.24,57.939 8.761,57.82 C9.28,57.701 9.767,57.533 10.22,57.32 C10.673,57.107 11.097,56.85 11.49,56.551 C11.884,56.25 12.261,55.914 12.62,55.541 L11.58,54.52 C10.913,55.16 10.233,55.656 9.54,56.01" id="Fill-10"></path>
                </g>
                <path d="M32.399,61.801 C32.399,62.6 32.263,63.348 31.989,64.041 C31.716,64.734 31.34,65.34 30.86,65.859 C30.38,66.381 29.804,66.791 29.13,67.09 C28.456,67.391 27.72,67.541 26.92,67.541 C26.12,67.541 25.383,67.387 24.71,67.08 C24.036,66.773 23.453,66.359 22.96,65.84 C22.466,65.32 22.083,64.711 21.81,64.01 C21.536,63.311 21.399,62.561 21.399,61.76 L21.399,61.721 C21.399,60.92 21.536,60.174 21.81,59.481 C22.083,58.787 22.46,58.18 22.94,57.66 C23.42,57.141 23.997,56.731 24.67,56.43 C25.343,56.131 26.08,55.981 26.88,55.981 C27.68,55.981 28.417,56.133 29.09,56.44 C29.763,56.748 30.347,57.16 30.84,57.68 C31.333,58.201 31.716,58.811 31.989,59.51 C32.263,60.211 32.399,60.961 32.399,61.76 L32.399,61.801 Z M32.08,56.67 C31.453,56.01 30.703,55.486 29.83,55.1 C28.956,54.713 27.986,54.52 26.92,54.52 C25.852,54.52 24.88,54.717 24,55.109 C23.12,55.504 22.366,56.029 21.739,56.69 C21.112,57.35 20.626,58.121 20.28,59 C19.933,59.881 19.76,60.801 19.76,61.76 L19.76,61.801 C19.76,62.76 19.93,63.678 20.27,64.551 C20.61,65.424 21.093,66.189 21.72,66.85 C22.347,67.51 23.097,68.033 23.97,68.42 C24.843,68.807 25.813,69 26.88,69 C27.946,69 28.92,68.803 29.8,68.41 C30.68,68.018 31.433,67.49 32.06,66.83 C32.686,66.17 33.173,65.4 33.521,64.52 C33.866,63.641 34.04,62.721 34.04,61.76 C34.054,61.748 34.054,61.734 34.04,61.721 C34.04,60.76 33.87,59.844 33.53,58.971 C33.19,58.098 32.706,57.33 32.08,56.67 Z" id="Fill-12"></path>
                <polyline id="Fill-13" points="49.08 62.4 43.979 54.76 42.38 54.76 42.38 68.76 43.92 68.76 43.92 57.44 49.02 64.92 49.101 64.92 54.2 57.42 54.2 68.76 55.78 68.76 55.78 54.76 54.18 54.76 49.08 62.4"></polyline>
                <polyline id="Fill-14" points="71.44 62.4 66.34 54.76 64.739 54.76 64.739 68.76 66.28 68.76 66.28 57.44 71.38 64.92 71.46 64.92 76.56 57.42 76.56 68.76 78.14 68.76 78.14 54.76 76.54 54.76 71.44 62.4"></polyline>
                <path d="M96.96,62.9 C96.96,64.434 96.579,65.588 95.819,66.359 C95.06,67.133 94.032,67.52 92.739,67.52 C91.393,67.52 90.343,67.113 89.59,66.301 C88.837,65.486 88.46,64.32 88.46,62.801 L88.46,54.76 L86.88,54.76 L86.88,62.9 C86.88,63.887 87.019,64.76 87.3,65.52 C87.579,66.279 87.976,66.918 88.489,67.43 C89.003,67.943 89.616,68.33 90.329,68.59 C91.043,68.85 91.833,68.98 92.7,68.98 C93.579,68.98 94.376,68.85 95.09,68.59 C95.803,68.33 96.416,67.94 96.93,67.42 C97.442,66.9 97.84,66.254 98.12,65.481 C98.399,64.707 98.54,63.807 98.54,62.779 L98.54,54.76 L96.96,54.76 L96.96,62.9" id="Fill-15"></path>
                <polyline id="Fill-16" points="117.579 65.981 108.759 54.76 107.279 54.76 107.279 68.76 108.819 68.76 108.819 57.279 117.859 68.76 119.119 68.76 119.119 54.76 117.579 54.76 117.579 65.981"></polyline>
                <polygon id="Fill-17" points="128.22 68.76 129.799 68.76 129.799 54.76 128.22 54.76"></polygon>
                <polyline id="Fill-18" points="137.899 56.221 142.598 56.221 142.598 68.76 144.178 68.76 144.178 56.221 148.879 56.221 148.879 54.76 137.899 54.76 137.899 56.221"></polyline>
                <polyline id="Fill-19" points="162.049 61.76 157.338 54.76 155.418 54.76 161.239 63.221 161.239 68.76 162.819 68.76 162.819 63.201 168.639 54.76 166.799 54.76 162.049 61.76"></polyline>
                <path d="M196.098,67.01 C195.405,67.363 194.579,67.541 193.618,67.541 C192.844,67.541 192.127,67.391 191.467,67.09 C190.807,66.791 190.235,66.381 189.749,65.859 C189.26,65.34 188.881,64.731 188.608,64.029 C188.334,63.33 188.198,62.574 188.198,61.76 L188.198,61.721 C188.198,60.92 188.334,60.17 188.608,59.471 C188.881,58.77 189.26,58.16 189.749,57.641 C190.235,57.121 190.807,56.713 191.467,56.42 C192.127,56.127 192.844,55.981 193.618,55.981 C194.579,55.981 195.401,56.16 196.088,56.52 C196.774,56.881 197.418,57.34 198.018,57.9 L199.098,56.74 C198.75,56.406 198.391,56.104 198.018,55.83 C197.645,55.557 197.239,55.324 196.797,55.131 C196.358,54.938 195.881,54.787 195.368,54.68 C194.854,54.574 194.278,54.52 193.637,54.52 C192.612,54.52 191.665,54.711 190.797,55.09 C189.93,55.471 189.184,55.99 188.557,56.65 C187.93,57.311 187.442,58.08 187.088,58.961 C186.735,59.84 186.557,60.773 186.557,61.76 L186.557,61.801 C186.557,62.801 186.735,63.74 187.088,64.621 C187.442,65.5 187.93,66.264 188.557,66.91 C189.184,67.557 189.924,68.066 190.778,68.439 C191.631,68.813 192.565,69 193.579,69 C194.217,69 194.797,68.939 195.319,68.82 C195.838,68.701 196.325,68.533 196.778,68.32 C197.231,68.107 197.655,67.85 198.047,67.551 C198.442,67.25 198.819,66.914 199.178,66.541 L198.137,65.52 C197.471,66.16 196.792,66.656 196.098,67.01" id="Fill-20"></path>
                <polyline id="Fill-21" points="216.598 60.981 208.518 60.981 208.518 54.76 206.938 54.76 206.938 68.76 208.518 68.76 208.518 62.461 216.598 62.461 216.598 68.76 218.178 68.76 218.178 54.76 216.598 54.76 216.598 60.981"></polyline>
                <path d="M236.999,62.9 C236.999,64.434 236.618,65.588 235.858,66.359 C235.098,67.133 234.071,67.52 232.778,67.52 C231.43,67.52 230.381,67.113 229.627,66.301 C228.875,65.486 228.499,64.32 228.499,62.801 L228.499,54.76 L226.918,54.76 L226.918,62.9 C226.918,63.887 227.057,64.76 227.338,65.52 C227.618,66.279 228.014,66.918 228.528,67.43 C229.042,67.943 229.655,68.33 230.368,68.59 C231.081,68.85 231.872,68.98 232.739,68.98 C233.618,68.98 234.415,68.85 235.127,68.59 C235.84,68.33 236.454,67.94 236.967,67.42 C237.481,66.9 237.877,66.254 238.159,65.481 C238.438,64.707 238.579,63.807 238.579,62.779 L238.579,54.76 L236.999,54.76 L236.999,62.9" id="Fill-22"></path>
                <path d="M248.897,61.9 L248.897,56.221 L253.229,56.221 C254.366,56.221 255.247,56.463 255.875,56.951 C256.502,57.438 256.817,58.113 256.817,58.981 L256.817,59.02 C256.817,59.475 256.727,59.877 256.547,60.231 C256.366,60.584 256.116,60.883 255.795,61.131 C255.475,61.377 255.094,61.566 254.653,61.701 C254.211,61.834 253.729,61.9 253.209,61.9 L248.897,61.9 Z M256.118,62.57 C256.584,62.35 256.987,62.07 257.329,61.731 C257.668,61.391 257.93,60.99 258.118,60.529 C258.305,60.07 258.397,59.547 258.397,58.961 L258.397,58.92 C258.397,58.359 258.305,57.848 258.118,57.381 C257.93,56.914 257.665,56.508 257.317,56.16 C256.877,55.721 256.321,55.377 255.647,55.131 C254.975,54.883 254.204,54.76 253.338,54.76 L247.317,54.76 L247.317,68.76 L248.897,68.76 L248.897,63.32 L252.897,63.32 L256.958,68.76 L258.897,68.76 L254.598,63.041 C255.145,62.947 255.651,62.791 256.118,62.57 Z" id="Fill-23"></path>
                <path d="M275.698,67.01 C275.004,67.363 274.178,67.541 273.217,67.541 C272.444,67.541 271.727,67.391 271.067,67.09 C270.407,66.791 269.834,66.381 269.348,65.859 C268.86,65.34 268.481,64.731 268.208,64.029 C267.934,63.33 267.797,62.574 267.797,61.76 L267.797,61.721 C267.797,60.92 267.934,60.17 268.208,59.471 C268.481,58.77 268.86,58.16 269.348,57.641 C269.834,57.121 270.407,56.713 271.067,56.42 C271.727,56.127 272.444,55.981 273.217,55.981 C274.178,55.981 275,56.16 275.688,56.52 C276.374,56.881 277.018,57.34 277.618,57.9 L278.698,56.74 C278.35,56.406 277.991,56.104 277.618,55.83 C277.245,55.557 276.838,55.324 276.397,55.131 C275.958,54.938 275.481,54.787 274.967,54.68 C274.454,54.574 273.877,54.52 273.237,54.52 C272.211,54.52 271.264,54.711 270.397,55.09 C269.53,55.471 268.784,55.99 268.157,56.65 C267.53,57.311 267.042,58.08 266.688,58.961 C266.334,59.84 266.157,60.773 266.157,61.76 L266.157,61.801 C266.157,62.801 266.334,63.74 266.688,64.621 C267.042,65.5 267.53,66.264 268.157,66.91 C268.784,67.557 269.524,68.066 270.377,68.439 C271.231,68.813 272.165,69 273.178,69 C273.817,69 274.397,68.939 274.918,68.82 C275.438,68.701 275.924,68.533 276.377,68.32 C276.831,68.107 277.254,67.85 277.647,67.551 C278.042,67.25 278.418,66.914 278.778,66.541 L277.737,65.52 C277.071,66.16 276.391,66.656 275.698,67.01" id="Fill-24"></path>
                <polyline id="Fill-25" points="296.198 60.981 288.118 60.981 288.118 54.76 286.538 54.76 286.538 68.76 288.118 68.76 288.118 62.461 296.198 62.461 296.198 68.76 297.778 68.76 297.778 54.76 296.198 54.76 296.198 60.981"></polyline>
                <path d="M1.504,12.956 L13.234,12.956 L13.234,19.65 C14.176,17.399 15.465,15.597 17.104,14.246 C18.74,12.895 20.951,12.281 23.736,12.403 L23.736,24.686 L22.754,24.686 C19.684,24.686 17.328,25.586 15.691,27.388 C14.053,29.19 13.234,32.015 13.234,35.863 L13.234,46.18 L1.504,46.18 L1.504,12.956" id="Fill-26"></path>
                <path d="M121.598,12.956 L133.329,12.956 L133.329,19.65 C134.27,17.399 135.559,15.597 137.198,14.246 C138.834,12.895 141.045,12.281 143.831,12.403 L143.831,24.686 L142.848,24.686 C139.778,24.686 137.422,25.586 135.786,27.388 C134.147,29.19 133.329,32.015 133.329,35.863 L133.329,46.18 L121.598,46.18 L121.598,12.956" id="Fill-27"></path>
            </g>
        </g>
    </g>
</svg>