<svg class="logo-mark" width="85px" height="85px" viewBox="0 0 85 85" version="1.1" xmlns="http://www.w3.org/2000/svg" xmlns:xlink="http://www.w3.org/1999/xlink">
    <g id="↳-Logos-&amp;-Colors" stroke="none" stroke-width="1" fill="none" fill-rule="evenodd">
        <g id="Branding-/-Logos-/-Mark-/-Green" fill="#43D876">
            <g id="Group-2">
                <g id="Group">
                    <path d="M45.056,9.688 C60.58,11.081 73.064,23.157 75.088,38.493 L84.07,38.493 C81.97,18.236 65.498,2.197 45.056,0.753 L45.056,9.688" id="Fill-1"></path>
                    <path d="M9.022,38.493 C10.948,23.911 22.328,12.272 36.789,9.967 L36.789,0.976 C17.408,3.398 2.062,18.991 0.042,38.493 L9.022,38.493" id="Fill-2"></path>
                    <g id="Group-6" transform="translate(0.000000, 46.000000)">
                        <path d="M36.789,29.787 C22.164,27.455 10.687,15.576 8.959,0.76 L0,0.76 C1.808,20.494 17.243,36.334 36.789,38.777 L36.789,29.787" id="Fill-3"></path>
                        <path d="M75.152,0.76 C73.335,16.334 60.748,28.658 45.056,30.066 L45.056,39 C65.665,37.545 82.234,21.25 84.111,0.76 L75.152,0.76" id="Fill-5"></path>
                    </g>
                </g>
                <path d="M30.38,26.931 L42.111,26.931 L42.111,33.625 C43.052,31.374 44.341,29.572 45.98,28.221 C47.617,26.87 49.828,26.256 52.613,26.378 L52.613,38.661 L51.63,38.661 C48.559,38.661 46.205,39.562 44.568,41.363 C42.929,43.165 42.111,45.99 42.111,49.838 L42.111,60.154 L30.38,60.154 L30.38,26.931" id="Fill-7"></path>
            </g>
        </g>
    </g>
</svg>