<svg class="logo-primary" width="399px" height="85px" viewBox="0 0 399 85" version="1.1" xmlns="http://www.w3.org/2000/svg" xmlns:xlink="http://www.w3.org/1999/xlink">
    <g id="↳-Logos-&amp;-Colors" stroke="none" stroke-width="1" fill="none" fill-rule="evenodd">
        <g id="Branding-/-Logos-/-Full-/-White-+-Green">
            <g id="Group">
                <polygon id="Fill-4" fill="#FFFFFE" points="125.954 50.454 134.62 50.454 134.62 17.229 125.954 17.229"></polygon>
                <path d="M130.322,5.622 C129.122,5.622 128.092,6.052 127.233,6.911 C126.374,7.771 125.944,8.79 125.944,9.97 C125.944,11.21 126.374,12.259 127.233,13.118 C128.092,13.979 129.131,14.408 130.352,14.408 C131.571,14.408 132.6,13.979 133.44,13.118 C134.299,12.259 134.729,11.22 134.729,10 C134.729,8.78 134.299,7.751 133.44,6.911 C132.581,6.052 131.542,5.622 130.322,5.622" id="Fill-5" fill="#FFFFFE"></path>
                <polyline id="Fill-6" fill="#FFFFFE" points="158.917 36.636 152.53 17.229 140.249 17.229 153.513 50.699 164.137 50.699 177.403 17.229 165.304 17.229 158.917 36.636"></polyline>
                <path d="M192.817,26.717 C193.799,25.633 195.069,25.09 196.625,25.09 C198.221,25.09 199.532,25.633 200.555,26.717 C201.578,27.803 202.192,29.266 202.397,31.108 L190.852,31.108 C191.179,29.266 191.834,27.803 192.817,26.717 Z M212.04,44.496 L205.59,39.153 C204.403,40.341 203.227,41.201 202.059,41.732 C200.893,42.265 199.613,42.531 198.221,42.531 C196.379,42.531 194.833,42.081 193.584,41.18 C192.335,40.279 191.486,38.907 191.036,37.065 L213.268,37.065 C213.307,36.656 213.329,36.247 213.329,35.837 C213.329,35.428 213.329,35.039 213.329,34.67 C213.329,32.214 212.991,29.891 212.315,27.7 C211.64,25.51 210.616,23.585 209.245,21.927 C207.873,20.268 206.133,18.948 204.025,17.966 C201.916,16.983 199.428,16.492 196.563,16.492 C194.106,16.492 191.854,16.943 189.807,17.843 C187.76,18.744 185.99,19.983 184.496,21.559 C183,23.135 181.844,24.977 181.026,27.086 C180.207,29.194 179.797,31.456 179.797,33.872 L179.797,33.994 C179.797,36.574 180.237,38.929 181.118,41.057 C181.999,43.187 183.226,44.998 184.803,46.492 C186.378,47.987 188.251,49.154 190.422,49.992 C192.591,50.831 194.987,51.252 197.607,51.252 C200.923,51.252 203.758,50.638 206.113,49.409 C208.467,48.181 210.442,46.544 212.04,44.496 Z" id="Fill-7" fill="#FFFFFE"></path>
                <path d="M281.512,33.993 C281.512,34.969 281.347,35.902 281.02,36.796 C280.692,37.688 280.231,38.471 279.638,39.141 C279.044,39.811 278.318,40.338 277.458,40.724 C276.598,41.109 275.636,41.303 274.572,41.303 C273.547,41.303 272.606,41.101 271.747,40.693 C270.887,40.287 270.139,39.749 269.505,39.079 C268.87,38.409 268.379,37.629 268.032,36.735 C267.683,35.842 267.509,34.887 267.509,33.872 L267.509,33.75 C267.509,32.776 267.672,31.842 268,30.949 C268.329,30.056 268.789,29.273 269.382,28.604 C269.975,27.934 270.704,27.405 271.563,27.02 C272.422,26.634 273.383,26.44 274.45,26.44 C275.472,26.44 276.415,26.645 277.274,27.05 C278.133,27.457 278.88,27.994 279.516,28.664 C280.15,29.334 280.641,30.116 280.989,31.01 C281.336,31.902 281.512,32.856 281.512,33.872 L281.512,33.993 Z M291.491,40.597 C292.413,38.488 292.873,36.247 292.873,33.872 L292.873,33.749 C292.873,31.375 292.422,29.143 291.522,27.055 C290.621,24.967 289.351,23.146 287.714,21.589 C286.077,20.034 284.141,18.795 281.911,17.874 C279.678,16.952 277.233,16.492 274.572,16.492 C271.911,16.492 269.454,16.952 267.202,17.874 C264.95,18.795 263.005,20.044 261.368,21.62 C259.73,23.196 258.452,25.039 257.53,27.147 C256.609,29.256 256.148,31.498 256.148,33.872 L256.148,33.994 C256.148,36.369 256.598,38.601 257.499,40.688 C258.399,42.776 259.668,44.609 261.307,46.185 C262.944,47.762 264.878,49 267.11,49.9 C269.341,50.801 271.788,51.252 274.45,51.252 C277.11,51.252 279.567,50.791 281.819,49.87 C284.07,48.948 286.014,47.7 287.653,46.124 C289.29,44.548 290.57,42.705 291.491,40.597 Z" id="Fill-8" fill="#FFFFFE"></path>
                <path d="M315.657,42.408 C314.591,43.391 313.2,43.882 311.481,43.882 C310.292,43.882 309.309,43.565 308.533,42.93 C307.754,42.296 307.366,41.405 307.366,40.259 L307.366,40.136 C307.366,38.907 307.827,37.915 308.748,37.157 C309.668,36.4 310.989,36.021 312.708,36.021 C313.569,36.021 314.397,36.104 315.196,36.267 C315.995,36.431 316.679,36.636 317.252,36.881 L317.252,38.416 C317.252,40.096 316.721,41.426 315.657,42.408 Z M328.614,50.453 L328.614,31.353 C328.614,29.021 328.338,26.984 327.786,25.243 C327.233,23.504 326.321,22.02 325.052,20.791 C323.742,19.481 322.053,18.479 319.986,17.781 C317.918,17.086 315.389,16.737 312.401,16.737 C309.536,16.737 307.047,16.974 304.94,17.444 C302.831,17.915 300.834,18.54 298.952,19.317 L301.347,27.546 C302.821,26.974 304.274,26.523 305.708,26.195 C307.14,25.868 308.737,25.704 310.498,25.704 C312.749,25.704 314.417,26.175 315.502,27.116 C316.587,28.059 317.13,29.389 317.13,31.108 L317.13,31.661 C316.188,31.334 315.012,31.037 313.599,30.77 C312.186,30.505 310.702,30.371 309.147,30.371 C307.182,30.371 305.401,30.597 303.803,31.047 C302.208,31.498 300.845,32.152 299.719,33.012 C298.593,33.872 297.713,34.957 297.079,36.267 C296.444,37.577 296.127,39.092 296.127,40.812 L296.127,40.935 C296.127,42.613 296.413,44.087 296.987,45.355 C297.56,46.625 298.348,47.689 299.352,48.55 C300.354,49.409 301.532,50.064 302.883,50.515 C304.234,50.965 305.708,51.19 307.304,51.19 C309.515,51.19 311.409,50.812 312.985,50.054 C314.561,49.297 315.922,48.283 317.069,47.014 L317.069,50.453 L328.614,50.453 Z" id="Fill-9" fill="#FFFFFE"></path>
                <polyline id="Fill-10" fill="#FFFFFE" points="356.987 30.556 368.532 17.229 355.329 17.229 346.301 28.345 346.301 5.622 334.571 5.622 334.571 50.453 346.301 50.453 346.301 42.653 349.31 39.153 356.004 50.453 368.839 50.453 356.987 30.556"></polyline>
                <path d="M397.458,35.837 C396.843,34.691 396.003,33.718 394.94,32.92 C393.875,32.121 392.625,31.446 391.194,30.893 C389.76,30.341 388.225,29.84 386.587,29.389 C384.827,28.857 383.486,28.396 382.565,28.007 C381.643,27.618 381.183,27.097 381.183,26.44 L381.183,26.318 C381.183,25.868 381.408,25.489 381.858,25.182 C382.309,24.875 382.985,24.722 383.885,24.722 C385.195,24.722 386.731,24.998 388.491,25.551 C390.25,26.104 391.992,26.851 393.711,27.792 L397.704,20.423 C395.778,19.194 393.629,18.242 391.254,17.566 C388.879,16.892 386.464,16.554 384.008,16.554 C382.083,16.554 380.313,16.799 378.696,17.29 C377.079,17.781 375.676,18.488 374.489,19.409 C373.301,20.33 372.371,21.477 371.695,22.849 C371.02,24.221 370.682,25.786 370.682,27.546 L370.682,27.669 C370.682,29.349 370.989,30.761 371.602,31.906 C372.217,33.054 373.055,34.025 374.121,34.823 C375.184,35.622 376.433,36.298 377.867,36.851 C379.299,37.403 380.834,37.885 382.473,38.294 C384.233,38.785 385.563,39.215 386.464,39.583 C387.365,39.951 387.815,40.464 387.815,41.118 L387.815,41.241 C387.815,42.43 386.833,43.022 384.868,43.022 C383.149,43.022 381.295,42.705 379.31,42.07 C377.324,41.437 375.37,40.484 373.446,39.215 L369.084,46.277 C371.418,47.956 373.916,49.194 376.577,49.992 C379.238,50.791 381.981,51.19 384.807,51.19 C386.812,51.19 388.655,50.954 390.333,50.483 C392.012,50.014 393.444,49.308 394.632,48.365 C395.819,47.424 396.741,46.268 397.396,44.895 C398.05,43.524 398.378,41.917 398.378,40.074 L398.378,39.951 C398.378,38.354 398.071,36.983 397.458,35.837" id="Fill-11" fill="#FFFFFE"></path>
                <path d="M105.827,72.17 C105.133,72.523 104.307,72.7 103.346,72.7 C102.573,72.7 101.857,72.55 101.197,72.25 C100.537,71.95 99.963,71.54 99.477,71.02 C98.99,70.5 98.61,69.89 98.337,69.189 C98.063,68.49 97.927,67.733 97.927,66.92 L97.927,66.88 C97.927,66.08 98.063,65.33 98.337,64.63 C98.61,63.93 98.99,63.32 99.477,62.8 C99.963,62.28 100.537,61.873 101.197,61.58 C101.857,61.287 102.573,61.14 103.346,61.14 C104.307,61.14 105.129,61.32 105.817,61.68 C106.503,62.04 107.147,62.5 107.747,63.06 L108.827,61.9 C108.48,61.566 108.12,61.264 107.747,60.99 C107.374,60.717 106.967,60.483 106.527,60.29 C106.086,60.097 105.61,59.947 105.096,59.84 C104.583,59.733 104.006,59.68 103.367,59.68 C102.34,59.68 101.394,59.87 100.527,60.25 C99.66,60.63 98.913,61.15 98.287,61.81 C97.66,62.47 97.17,63.24 96.817,64.12 C96.463,65 96.287,65.934 96.287,66.92 L96.287,66.96 C96.287,67.96 96.463,68.9 96.817,69.78 C97.17,70.66 97.66,71.424 98.287,72.07 C98.913,72.717 99.653,73.227 100.507,73.6 C101.36,73.973 102.293,74.16 103.307,74.16 C103.947,74.16 104.527,74.1 105.047,73.979 C105.567,73.86 106.053,73.693 106.506,73.479 C106.959,73.267 107.383,73.01 107.777,72.71 C108.17,72.41 108.547,72.073 108.907,71.7 L107.867,70.68 C107.2,71.32 106.52,71.816 105.827,72.17" id="Fill-12" fill="#FFFFFE"></path>
                <path d="M128.686,66.96 C128.686,67.76 128.549,68.507 128.276,69.2 C128.002,69.894 127.626,70.5 127.147,71.02 C126.667,71.54 126.09,71.95 125.417,72.25 C124.743,72.55 124.006,72.7 123.207,72.7 C122.407,72.7 121.669,72.547 120.997,72.24 C120.323,71.934 119.74,71.52 119.247,71 C118.752,70.479 118.37,69.87 118.096,69.17 C117.823,68.47 117.686,67.72 117.686,66.92 L117.686,66.88 C117.686,66.08 117.823,65.333 118.096,64.64 C118.37,63.947 118.747,63.34 119.227,62.82 C119.707,62.3 120.284,61.89 120.957,61.59 C121.629,61.29 122.367,61.14 123.167,61.14 C123.966,61.14 124.704,61.293 125.376,61.6 C126.049,61.907 126.633,62.32 127.126,62.84 C127.62,63.36 128.002,63.97 128.276,64.67 C128.549,65.37 128.686,66.12 128.686,66.92 L128.686,66.96 Z M128.367,61.83 C127.74,61.17 126.99,60.646 126.117,60.26 C125.243,59.873 124.273,59.68 123.207,59.68 C122.139,59.68 121.167,59.877 120.287,60.27 C119.407,60.663 118.653,61.189 118.026,61.85 C117.399,62.51 116.913,63.28 116.567,64.16 C116.219,65.04 116.046,65.96 116.046,66.92 L116.046,66.96 C116.046,67.92 116.216,68.837 116.557,69.71 C116.897,70.583 117.379,71.35 118.006,72.01 C118.633,72.67 119.383,73.193 120.256,73.58 C121.129,73.967 122.1,74.16 123.167,74.16 C124.233,74.16 125.207,73.963 126.086,73.57 C126.966,73.177 127.719,72.65 128.346,71.99 C128.973,71.33 129.459,70.56 129.807,69.68 C130.153,68.8 130.327,67.88 130.327,66.92 C130.34,66.907 130.34,66.894 130.327,66.88 C130.327,65.92 130.157,65.003 129.817,64.13 C129.477,63.257 128.993,62.49 128.367,61.83 Z" id="Fill-13" fill="#FFFFFE"></path>
                <polyline id="Fill-14" fill="#FFFFFE" points="145.367 67.56 140.266 59.92 138.667 59.92 138.667 73.92 140.207 73.92 140.207 62.6 145.307 70.08 145.387 70.08 150.487 62.58 150.487 73.92 152.067 73.92 152.067 59.92 150.466 59.92 145.367 67.56"></polyline>
                <polyline id="Fill-15" fill="#FFFFFE" points="167.727 67.56 162.626 59.92 161.026 59.92 161.026 73.92 162.567 73.92 162.567 62.6 167.667 70.08 167.747 70.08 172.846 62.58 172.846 73.92 174.426 73.92 174.426 59.92 172.827 59.92 167.727 67.56"></polyline>
                <path d="M193.247,68.06 C193.247,69.594 192.866,70.747 192.106,71.52 C191.346,72.293 190.319,72.68 189.026,72.68 C187.679,72.68 186.629,72.273 185.876,71.46 C185.124,70.646 184.747,69.479 184.747,67.96 L184.747,59.92 L183.167,59.92 L183.167,68.06 C183.167,69.047 183.306,69.92 183.586,70.68 C183.866,71.439 184.262,72.077 184.776,72.59 C185.29,73.104 185.903,73.49 186.616,73.75 C187.33,74.01 188.12,74.14 188.987,74.14 C189.866,74.14 190.663,74.01 191.376,73.75 C192.089,73.49 192.703,73.1 193.216,72.58 C193.729,72.06 194.126,71.413 194.407,70.64 C194.686,69.867 194.827,68.967 194.827,67.939 L194.827,59.92 L193.247,59.92 L193.247,68.06" id="Fill-16" fill="#FFFFFE"></path>
                <polyline id="Fill-17" fill="#FFFFFE" points="213.866 71.14 205.045 59.92 203.566 59.92 203.566 73.92 205.106 73.92 205.106 62.439 214.146 73.92 215.406 73.92 215.406 59.92 213.866 59.92 213.866 71.14"></polyline>
                <polygon id="Fill-18" fill="#FFFFFE" points="224.506 73.92 226.086 73.92 226.086 59.92 224.506 59.92"></polygon>
                <polyline id="Fill-19" fill="#FFFFFE" points="234.186 61.38 238.885 61.38 238.885 73.92 240.465 73.92 240.465 61.38 245.166 61.38 245.166 59.92 234.186 59.92 234.186 61.38"></polyline>
                <polyline id="Fill-20" fill="#FFFFFE" points="258.335 66.92 253.625 59.92 251.706 59.92 257.526 68.38 257.526 73.92 259.106 73.92 259.106 68.36 264.925 59.92 263.085 59.92 258.335 66.92"></polyline>
                <path d="M292.385,72.17 C291.692,72.523 290.865,72.7 289.905,72.7 C289.131,72.7 288.415,72.55 287.754,72.25 C287.094,71.95 286.522,71.54 286.035,71.02 C285.547,70.5 285.168,69.89 284.895,69.189 C284.622,68.49 284.485,67.733 284.485,66.92 L284.485,66.88 C284.485,66.08 284.622,65.33 284.895,64.63 C285.168,63.93 285.547,63.32 286.035,62.8 C286.522,62.28 287.094,61.873 287.754,61.58 C288.415,61.287 289.131,61.14 289.905,61.14 C290.865,61.14 291.688,61.32 292.375,61.68 C293.061,62.04 293.706,62.5 294.305,63.06 L295.385,61.9 C295.038,61.566 294.678,61.264 294.305,60.99 C293.932,60.717 293.525,60.483 293.084,60.29 C292.645,60.097 292.168,59.947 291.655,59.84 C291.141,59.733 290.565,59.68 289.924,59.68 C288.898,59.68 287.952,59.87 287.084,60.25 C286.217,60.63 285.471,61.15 284.844,61.81 C284.217,62.47 283.728,63.24 283.375,64.12 C283.022,65 282.844,65.934 282.844,66.92 L282.844,66.96 C282.844,67.96 283.022,68.9 283.375,69.78 C283.728,70.66 284.217,71.424 284.844,72.07 C285.471,72.717 286.211,73.227 287.065,73.6 C287.918,73.973 288.852,74.16 289.865,74.16 C290.504,74.16 291.084,74.1 291.605,73.979 C292.125,73.86 292.612,73.693 293.065,73.479 C293.518,73.267 293.942,73.01 294.334,72.71 C294.728,72.41 295.105,72.073 295.465,71.7 L294.424,70.68 C293.758,71.32 293.079,71.816 292.385,72.17" id="Fill-21" fill="#FFFFFE"></path>
                <polyline id="Fill-22" fill="#FFFFFE" points="312.885 66.14 304.805 66.14 304.805 59.92 303.225 59.92 303.225 73.92 304.805 73.92 304.805 67.62 312.885 67.62 312.885 73.92 314.465 73.92 314.465 59.92 312.885 59.92 312.885 66.14"></polyline>
                <path d="M333.285,68.06 C333.285,69.594 332.905,70.747 332.145,71.52 C331.385,72.293 330.358,72.68 329.065,72.68 C327.717,72.68 326.668,72.273 325.915,71.46 C325.162,70.646 324.785,69.479 324.785,67.96 L324.785,59.92 L323.205,59.92 L323.205,68.06 C323.205,69.047 323.344,69.92 323.625,70.68 C323.905,71.439 324.301,72.077 324.815,72.59 C325.329,73.104 325.942,73.49 326.655,73.75 C327.368,74.01 328.158,74.14 329.025,74.14 C329.905,74.14 330.702,74.01 331.415,73.75 C332.127,73.49 332.741,73.1 333.254,72.58 C333.768,72.06 334.165,71.413 334.445,70.64 C334.725,69.867 334.865,68.967 334.865,67.939 L334.865,59.92 L333.285,59.92 L333.285,68.06" id="Fill-23" fill="#FFFFFE"></path>
                <path d="M345.184,67.06 L345.184,61.38 L349.516,61.38 C350.652,61.38 351.534,61.623 352.163,62.11 C352.79,62.597 353.104,63.273 353.104,64.14 L353.104,64.18 C353.104,64.634 353.014,65.037 352.834,65.39 C352.653,65.743 352.403,66.043 352.083,66.29 C351.761,66.537 351.38,66.727 350.939,66.86 C350.498,66.993 350.016,67.06 349.496,67.06 L345.184,67.06 Z M352.405,67.729 C352.872,67.51 353.274,67.229 353.615,66.89 C353.955,66.55 354.217,66.15 354.405,65.689 C354.591,65.229 354.684,64.707 354.684,64.12 L354.684,64.08 C354.684,63.52 354.591,63.007 354.405,62.54 C354.217,62.073 353.952,61.667 353.604,61.32 C353.165,60.88 352.608,60.537 351.934,60.29 C351.261,60.043 350.491,59.92 349.625,59.92 L343.604,59.92 L343.604,73.92 L345.184,73.92 L345.184,68.479 L349.184,68.479 L353.245,73.92 L355.184,73.92 L350.884,68.2 C351.431,68.106 351.938,67.95 352.405,67.729 Z" id="Fill-24" fill="#FFFFFE"></path>
                <path d="M371.985,72.17 C371.292,72.523 370.464,72.7 369.504,72.7 C368.731,72.7 368.014,72.55 367.354,72.25 C366.694,71.95 366.122,71.54 365.634,71.02 C365.147,70.5 364.768,69.89 364.495,69.189 C364.221,68.49 364.084,67.733 364.084,66.92 L364.084,66.88 C364.084,66.08 364.221,65.33 364.495,64.63 C364.768,63.93 365.147,63.32 365.634,62.8 C366.122,62.28 366.694,61.873 367.354,61.58 C368.014,61.287 368.731,61.14 369.504,61.14 C370.464,61.14 371.288,61.32 371.975,61.68 C372.661,62.04 373.305,62.5 373.905,63.06 L374.985,61.9 C374.637,61.566 374.278,61.264 373.905,60.99 C373.532,60.717 373.125,60.483 372.684,60.29 C372.245,60.097 371.768,59.947 371.254,59.84 C370.741,59.733 370.165,59.68 369.524,59.68 C368.498,59.68 367.551,59.87 366.684,60.25 C365.817,60.63 365.071,61.15 364.444,61.81 C363.817,62.47 363.328,63.24 362.975,64.12 C362.622,65 362.444,65.934 362.444,66.92 L362.444,66.96 C362.444,67.96 362.622,68.9 362.975,69.78 C363.328,70.66 363.817,71.424 364.444,72.07 C365.071,72.717 365.811,73.227 366.665,73.6 C367.518,73.973 368.452,74.16 369.464,74.16 C370.104,74.16 370.684,74.1 371.205,73.979 C371.725,73.86 372.211,73.693 372.665,73.479 C373.118,73.267 373.542,73.01 373.934,72.71 C374.328,72.41 374.705,72.073 375.065,71.7 L374.024,70.68 C373.358,71.32 372.678,71.816 371.985,72.17" id="Fill-25" fill="#FFFFFE"></path>
                <polyline id="Fill-26" fill="#FFFFFE" points="392.485 66.14 384.405 66.14 384.405 59.92 382.825 59.92 382.825 73.92 384.405 73.92 384.405 67.62 392.485 67.62 392.485 73.92 394.065 73.92 394.065 59.92 392.485 59.92 392.485 66.14"></polyline>
                <path d="M97.791,18.115 L109.521,18.115 L109.521,24.81 C110.462,22.559 111.751,20.757 113.39,19.405 C115.027,18.055 117.238,17.44 120.023,17.563 L120.023,29.846 L119.041,29.846 C115.97,29.846 113.615,30.746 111.978,32.548 C110.339,34.35 109.521,37.175 109.521,41.022 L109.521,51.34 L97.791,51.34 L97.791,18.115" id="Fill-27" fill="#FFFFFE"></path>
                <path d="M217.885,18.115 L229.615,18.115 L229.615,24.81 C230.556,22.559 231.845,20.757 233.484,19.405 C235.121,18.055 237.332,17.44 240.117,17.563 L240.117,29.846 L239.134,29.846 C236.064,29.846 233.708,30.746 232.072,32.548 C230.433,34.35 229.615,37.175 229.615,41.022 L229.615,51.34 L217.885,51.34 L217.885,18.115" id="Fill-28" fill="#FFFFFE"></path>
                <path d="M46.005,9.174 C61.528,10.566 74.012,22.643 76.037,37.979 L85.018,37.979 C82.919,17.722 66.446,1.683 46.005,0.239 L46.005,9.174" id="Fill-29" fill="#43D876"></path>
                <path d="M9.971,37.979 C11.897,23.396 23.277,11.758 37.737,9.453 L37.737,0.461 C18.356,2.884 3.01,18.477 0.99,37.979 L9.971,37.979" id="Fill-30" fill="#43D876"></path>
                <path d="M37.737,75.273 C23.112,72.94 11.636,61.062 9.908,46.246 L0.949,46.246 C2.757,65.979 18.191,81.819 37.737,84.264 L37.737,75.273" id="Fill-31" fill="#43D876"></path>
                <path d="M76.101,46.246 C74.285,61.819 61.697,74.144 46.005,75.552 L46.005,84.485 C66.613,83.03 83.182,66.736 85.06,46.246 L76.101,46.246" id="Fill-32" fill="#43D876"></path>
                <path d="M31.329,26.417 L43.06,26.417 L43.06,33.111 C44.001,30.86 45.29,29.058 46.929,27.706 C48.565,26.356 50.776,25.742 53.562,25.864 L53.562,38.147 L52.579,38.147 C49.508,38.147 47.153,39.047 45.517,40.849 C43.878,42.651 43.06,45.476 43.06,49.324 L43.06,59.641 L31.329,59.641 L31.329,26.417" id="Fill-33" fill="#43D876"></path>
            </g>
        </g>
    </g>
</svg>