<svg width="34px" height="40px" viewBox="0 0 34 40" version="1.1" xmlns="http://www.w3.org/2000/svg" xmlns:xlink="http://www.w3.org/1999/xlink">
    <g id="Page-1" stroke="none" stroke-width="1" fill="none" fill-rule="evenodd">
        <g id="KCC-homepage-mockup-01" transform="translate(-1149.000000, -89.000000)" fill="#EAE9E1">
            <path d="M1182.14,95.54 C1178.13,90.261 1166.09,89.058 1166.09,89.058 C1166.09,89.058 1154.05,90.261 1150.04,95.54 C1150.04,95.54 1145.61,118.656 1166.09,128.58 C1168.87,127.233 1173.44,123.624 1173.77,123.325 L1170.73,123.325 C1169.46,124.196 1167.08,125.801 1166.09,126.319 C1162.17,124.264 1159,121.518 1156.65,118.149 C1154.62,115.241 1153.19,111.848 1152.39,108.064 C1151.24,102.617 1151.74,97.884 1151.95,96.401 C1155,93.026 1163.04,91.202 1166.09,91.079 C1169.14,91.202 1177.18,93.026 1180.23,96.401 C1180.25,96.512 1180.31,96.731 1180.37,96.936 L1182.4,96.936 C1182.28,95.624 1182.14,95.54 1182.14,95.54" id="Fill-86"></path>
        </g>
    </g>
</svg>