<svg viewBox="0 0 868.12 384.86" style="width:100%;fill: currentColor;">
<g>
	<path class="st2" d="M392.2,104.62v130.94h-34.04V104.62H392.2z"/>
	<path class="st2" d="M411.49,235.56V104.62h34.04l62.86,80.06v-80.06h33.86v130.94H508.4l-62.86-80.06v80.06H411.49z"/>
	<path class="st2" d="M631.19,162.28h67.55c0,6.95-0.29,13.26-0.87,18.93c-0.58,5.67-1.74,10.94-3.47,15.8
		c-2.43,6.83-5.73,12.88-9.9,18.15c-4.17,5.27-9.06,9.67-14.67,13.2c-5.62,3.53-11.78,6.22-18.49,8.07
		c-6.72,1.85-13.78,2.78-21.19,2.78c-10.19,0-19.48-1.68-27.87-5.04c-8.4-3.36-15.6-8.08-21.62-14.15
		c-6.02-6.08-10.71-13.37-14.07-21.88c-3.36-8.51-5.04-17.91-5.04-28.22c0-10.19,1.65-19.54,4.95-28.05s7.99-15.77,14.07-21.79
		c6.08-6.02,13.4-10.71,21.97-14.07c8.57-3.36,18.12-5.04,28.65-5.04c13.66,0,25.64,2.95,35.95,8.86
		c10.3,5.9,18.46,15.05,24.49,27.44l-32.3,13.37c-3.01-7.18-6.92-12.33-11.72-15.46c-4.81-3.13-10.28-4.69-16.41-4.69
		c-5.1,0-9.73,0.96-13.89,2.87c-4.17,1.91-7.73,4.63-10.68,8.16c-2.95,3.53-5.27,7.79-6.95,12.76c-1.68,4.98-2.52,10.54-2.52,16.67
		c0,5.56,0.72,10.71,2.17,15.46c1.45,4.75,3.62,8.86,6.51,12.33c2.89,3.47,6.48,6.16,10.77,8.07c4.28,1.91,9.26,2.87,14.93,2.87
		c3.36,0,6.6-0.37,9.72-1.13c3.13-0.75,5.93-1.97,8.42-3.65c2.49-1.68,4.54-3.85,6.17-6.51c1.62-2.66,2.72-5.9,3.3-9.72h-27.96
		V162.28z"/>
	<path class="st2" d="M746.18,104.47v34.64c0.15,4.98-0.57,9.66-2.15,14.04c-1.59,4.38-3.81,8.23-6.68,11.55
		c-2.87,3.32-6.3,6.08-10.3,8.26c-4,2.19-8.34,3.59-13.02,4.19V162.2c5.73-1.96,9.66-4.87,11.77-8.72
		c2.11-3.85,3.17-8.56,3.17-14.15h-14.94v-34.87H746.18z"/>
	<path class="st2" d="M830.64,138.14c-3.71-3.01-7.41-5.24-11.11-6.69c-3.71-1.45-7.29-2.17-10.77-2.17c-4.4,0-7.99,1.04-10.77,3.13
		c-2.78,2.08-4.17,4.81-4.17,8.16c0,2.32,0.69,4.23,2.08,5.73c1.39,1.51,3.21,2.81,5.47,3.91c2.26,1.1,4.8,2.06,7.64,2.87
		c2.84,0.81,5.64,1.68,8.42,2.6c11.11,3.71,19.25,8.66,24.4,14.85c5.15,6.19,7.73,14.27,7.73,24.23c0,6.72-1.13,12.79-3.39,18.23
		c-2.26,5.44-5.56,10.1-9.9,13.98c-4.34,3.88-9.67,6.89-15.98,9.03c-6.31,2.14-13.46,3.21-21.45,3.21
		c-16.56,0-31.9-4.92-46.02-14.76l14.59-27.44c5.09,4.52,10.13,7.87,15.11,10.07c4.98,2.2,9.9,3.3,14.76,3.3
		c5.56,0,9.7-1.27,12.42-3.82c2.72-2.55,4.08-5.44,4.08-8.68c0-1.97-0.35-3.67-1.04-5.12c-0.69-1.45-1.85-2.78-3.47-3.99
		c-1.62-1.22-3.73-2.34-6.34-3.39c-2.6-1.04-5.76-2.2-9.46-3.47c-4.4-1.39-8.71-2.92-12.94-4.6c-4.23-1.68-7.99-3.91-11.29-6.69
		c-3.3-2.78-5.96-6.28-7.99-10.51c-2.03-4.22-3.04-9.58-3.04-16.06c0-6.48,1.07-12.36,3.21-17.63c2.14-5.27,5.15-9.78,9.03-13.54
		c3.88-3.76,8.62-6.69,14.24-8.77c5.61-2.08,11.9-3.13,18.84-3.13c6.48,0,13.25,0.9,20.32,2.69c7.06,1.8,13.83,4.43,20.32,7.9
		L830.64,138.14z"/>
	<g>
		<path class="st2" d="M240.86,279.37c-2.85-3.47-6.36-5.21-10.54-5.21c-1.84,0-3.55,0.33-5.12,1c-1.57,0.67-2.92,1.58-4.05,2.73
			c-1.13,1.15-2.02,2.52-2.67,4.11c-0.65,1.59-0.97,3.31-0.97,5.15c0,1.88,0.32,3.62,0.97,5.21c0.65,1.59,1.55,2.97,2.7,4.14
			c1.15,1.17,2.5,2.09,4.05,2.76c1.55,0.67,3.22,1,5.02,1c3.93,0,7.47-1.67,10.61-5.02v14.56l-1.25,0.44
			c-1.88,0.67-3.64,1.16-5.27,1.48c-1.63,0.31-3.24,0.47-4.83,0.47c-3.26,0-6.39-0.62-9.38-1.85c-2.99-1.23-5.63-2.97-7.91-5.21
			c-2.28-2.24-4.11-4.9-5.49-7.97c-1.38-3.08-2.07-6.43-2.07-10.07c0-3.64,0.68-6.98,2.04-10.01c1.36-3.03,3.18-5.65,5.46-7.84
			c2.28-2.2,4.93-3.91,7.94-5.15c3.01-1.23,6.17-1.85,9.48-1.85c1.88,0,3.73,0.2,5.55,0.6c1.82,0.4,3.73,1.02,5.74,1.85V279.37z"/>
		<path class="st2" d="M272.55,287.21c0-3.51,0.65-6.79,1.95-9.82c1.3-3.03,3.1-5.68,5.4-7.94c2.3-2.26,5.05-4.03,8.25-5.3
			c3.2-1.28,6.72-1.91,10.57-1.91c3.81,0,7.32,0.64,10.54,1.91c3.22,1.28,5.99,3.04,8.32,5.3c2.32,2.26,4.13,4.91,5.43,7.94
			c1.3,3.03,1.95,6.31,1.95,9.82c0,3.51-0.65,6.79-1.95,9.82s-3.11,5.68-5.43,7.94c-2.32,2.26-5.09,4.03-8.32,5.3
			c-3.22,1.28-6.74,1.92-10.54,1.92c-3.85,0-7.37-0.64-10.57-1.92c-3.2-1.28-5.95-3.04-8.25-5.3c-2.3-2.26-4.1-4.91-5.4-7.94
			S272.55,290.72,272.55,287.21z M285.42,287.21c0,1.88,0.36,3.62,1.07,5.21c0.71,1.59,1.67,2.97,2.89,4.14
			c1.21,1.17,2.62,2.08,4.24,2.73c1.61,0.65,3.32,0.97,5.11,0.97s3.5-0.32,5.12-0.97c1.61-0.65,3.03-1.56,4.27-2.73
			c1.23-1.17,2.21-2.55,2.92-4.14c0.71-1.59,1.07-3.33,1.07-5.21s-0.36-3.62-1.07-5.21c-0.71-1.59-1.68-2.97-2.92-4.14
			c-1.24-1.17-2.66-2.08-4.27-2.73c-1.61-0.65-3.32-0.97-5.12-0.97s-3.5,0.32-5.11,0.97c-1.61,0.65-3.02,1.56-4.24,2.73
			c-1.21,1.17-2.18,2.55-2.89,4.14C285.77,283.59,285.42,285.33,285.42,287.21z"/>
		<path class="st2" d="M356.64,310.87l8.03-47.32h12.17l9.48,25.23l9.41-25.23h12.17l8.03,47.32h-12.24l-4.08-27.24l-11.17,27.24
			h-4.9l-10.61-27.24l-4.08,27.24H356.64z"/>
		<path class="st2" d="M447.64,310.87l8.03-47.32h12.17l9.48,25.23l9.41-25.23h12.17l8.03,47.32h-12.24l-4.08-27.24l-11.17,27.24
			h-4.9l-10.61-27.24l-4.08,27.24H447.64z"/>
		<path class="st2" d="M550.94,263.55v25.73c0,1.38,0.05,2.79,0.16,4.24s0.42,2.75,0.94,3.92c0.52,1.17,1.35,2.12,2.48,2.86
			c1.13,0.73,2.72,1.1,4.77,1.1c2.05,0,3.63-0.37,4.74-1.1c1.11-0.73,1.93-1.68,2.48-2.86c0.54-1.17,0.87-2.48,0.97-3.92
			s0.16-2.86,0.16-4.24v-25.73h12.24v27.43c0,7.36-1.68,12.74-5.05,16.13s-8.55,5.08-15.53,5.08c-6.99,0-12.17-1.7-15.56-5.08
			c-3.39-3.39-5.08-8.76-5.08-16.13v-27.43H550.94z"/>
		<path class="st2" d="M611.56,310.87v-47.32h12.3l22.72,28.93v-28.93h12.24v47.32h-12.24l-22.72-28.93v28.93H611.56z"/>
		<path class="st2" d="M702.81,263.55v47.32h-12.3v-47.32H702.81z"/>
		<path class="st2" d="M756.9,273.97v36.9h-12.3v-36.9h-10.1v-10.42h32.51v10.42H756.9z"/>
		<path class="st2" d="M815.95,288.15l-17.26-24.6h14.69l8.79,12.93l8.72-12.93h14.69l-17.32,24.6v22.72h-12.3V288.15z"/>
	</g>
	<polygon class="st2" points="338.87,104.47 297.64,104.47 241.97,169.43 241.97,104.47 238,104.47 207.82,104.47 207.82,235.56 
		238,235.56 241.97,235.56 241.97,217.4 265.57,188.4 297.64,235.56 338.87,235.56 287.83,164.78 	"/>
</g>
<path class="st2" d="M202.93,314.87c0,0-36.07,25.04-48.17,31.38c-34.46-18.06-62.35-42.19-82.98-71.81
	c-17.81-25.56-30.4-55.39-37.43-88.65c-10.12-47.88-5.72-89.49-3.88-102.52c26.81-29.67,97.51-45.7,124.25-46.78
	c0.01,0,0.02,0,0.03,0c0.01,0,0.02,0,0.03,0c26.74,1.08,97.44,17.11,124.25,46.78c0.36,2.54,0.81,0.17,1.24,4.71h17.85
	c-1.03-11.54-2.32-12.27-2.32-12.27c-35.27-46.4-141.06-56.98-141.06-56.98S48.97,29.3,13.71,75.7c0,0-38.98,203.19,141.06,290.43
	c24.44-11.84,44.84-25.83,61.85-41.15C216.62,324.99,204.65,321.62,202.93,314.87z"/>
</svg>
