<svg width="24px" height="24px" viewBox="0 0 24 24" version="1.1" xmlns="http://www.w3.org/2000/svg" xmlns:xlink="http://www.w3.org/1999/xlink">
    <defs>
        <path d="M16,4 C12.741,4 12.332,4.014 11.052,4.072 C9.102,4.161 7.389,4.639 6.014,6.014 C4.639,7.389 4.161,9.102 4.072,11.052 C4.014,12.332 4,12.741 4,16 C4,19.259 4.014,19.668 4.072,20.948 C4.161,22.898 4.639,24.611 6.014,25.986 C7.389,27.361 9.102,27.839 11.052,27.928 C12.332,27.986 12.741,28 16,28 C19.259,28 19.668,27.986 20.948,27.928 C22.898,27.839 24.611,27.361 25.986,25.986 C27.361,24.611 27.839,22.898 27.928,20.948 C27.986,19.668 28,19.259 28,16 C28,12.741 27.986,12.332 27.928,11.052 C27.839,9.102 27.361,7.389 25.986,6.014 C24.611,4.639 22.898,4.161 20.948,4.072 C19.668,4.014 19.259,4 16,4 Z M16,6.162 C19.204,6.162 19.584,6.174 20.849,6.232 C22.215,6.294 23.482,6.568 24.457,7.543 C25.432,8.518 25.706,9.785 25.768,11.151 C25.826,12.416 25.838,12.796 25.838,16 C25.838,19.204 25.826,19.584 25.768,20.849 C25.706,22.215 25.432,23.482 24.457,24.457 C23.482,25.432 22.215,25.706 20.849,25.768 C19.584,25.826 19.204,25.838 16,25.838 C12.796,25.838 12.416,25.826 11.151,25.768 C9.785,25.706 8.518,25.432 7.543,24.457 C6.568,23.482 6.294,22.215 6.232,20.849 C6.174,19.584 6.162,19.204 6.162,16 C6.162,12.796 6.174,12.416 6.232,11.151 C6.294,9.785 6.568,8.518 7.543,7.543 C8.518,6.568 9.785,6.294 11.151,6.232 C12.416,6.174 12.796,6.162 16,6.162 Z M16,9.838 C12.597,9.838 9.838,12.597 9.838,16 C9.838,19.403 12.597,22.162 16,22.162 C19.403,22.162 22.162,19.403 22.162,16 C22.162,12.597 19.403,9.838 16,9.838 Z M22.406,11.034 C23.20129,11.034 23.846,10.38929 23.846,9.594 C23.846,8.79870996 23.20129,8.154 22.406,8.154 C21.61071,8.154 20.966,8.79870996 20.966,9.594 C20.966,10.38929 21.61071,11.034 22.406,11.034 Z M16,20 C13.791,20 12,18.209 12,16 C12,13.791 13.791,12 16,12 C18.209,12 20,13.791 20,16 C20,18.209 18.209,20 16,20 Z" id="path-instagram"></path>
    </defs>
    <g id="↳-Logos-&amp;-Colors" stroke="none" stroke-width="1" fill="none" fill-rule="evenodd">
        <g id="03.-Components-/-Footer-/-Desktop" transform="translate(-1079.000000, -62.000000)">
            <g id="footer">
                <g id="contactBar">
                    <g id="socialIcons" transform="translate(1019.000000, 58.000000)">
                        <g id="Icons-/-32px-/-Instagram" transform="translate(56.000000, 0.000000)">
                            <mask id="mask-instagram" fill="white">
                                <use xlink:href="#path-instagram"></use>
                            </mask>
                            <g id="Instagram" fill-rule="nonzero"></g>
                            <g id="Branding-/-Colors-/-Neutral-80" mask="url(#mask-instagram)" fill="#273040" fill-rule="evenodd">
                                <rect id="🎨-Color" x="0" y="0" width="32" height="32"></rect>
                            </g>
                        </g>
                    </g>
                </g>
            </g>
        </g>
    </g>
</svg>