<svg width="24px" height="20px" viewBox="0 0 24 20" version="1.1" xmlns="http://www.w3.org/2000/svg" xmlns:xlink="http://www.w3.org/1999/xlink">
    <defs>
        <path d="M28,8.3 C27.1,8.7 26.2,9 25.2,9.1 C26.2,8.5 27,7.5 27.4,6.4 C26.4,7 25.4,7.4 24.3,7.6 C23.4,6.6 22.1,6 20.7,6 C18,6 15.8,8.2 15.8,10.9 C15.8,11.3 15.8,11.7 15.9,12 C11.7,11.8 8.1,9.8 5.7,6.8 C5.2,7.6 5,8.4 5,9.3 C5,11 5.9,12.5 7.2,13.4 C6.4,13.4 5.6,13.2 5,12.8 C5,12.8 5,12.8 5,12.9 C5,15.3 6.7,17.3 8.9,17.7 C8.5,17.8 8.1,17.9 7.6,17.9 C7.3,17.9 7,17.9 6.7,17.8 C7.3,19.8 9.1,21.2 11.3,21.2 C9.6,22.5 7.5,23.3 5.2,23.3 C4.8,23.3 4.4,23.3 4,23.2 C6.2,24.6 8.8,25.4 11.5,25.4 C20.6,25.4 25.5,17.9 25.5,11.4 C25.5,11.2 25.5,11 25.5,10.8 C26.5,10.1 27.3,9.2 28,8.3 Z" id="path-twitter"></path>
    </defs>
    <g id="↳-Logos-&amp;-Colors" stroke="none" stroke-width="1" fill="none" fill-rule="evenodd">
        <g id="03.-Components-/-Footer-/-Desktop" transform="translate(-1191.000000, -64.000000)">
            <g id="footer">
                <g id="contactBar">
                    <g id="socialIcons" transform="translate(1019.000000, 58.000000)">
                        <g id="Icons-/-32px-/-Twitter" transform="translate(168.000000, 0.000000)">
                            <mask id="mask-twitter" fill="white">
                                <use xlink:href="#path-twitter"></use>
                            </mask>
                            <g id="Twitter" fill-rule="nonzero"></g>
                            <g id="Branding-/-Colors-/-Neutral-80" mask="url(#mask-twitter)" fill="#273040" fill-rule="evenodd">
                                <rect id="🎨-Color" x="0" y="0" width="32" height="32"></rect>
                            </g>
                        </g>
                    </g>
                </g>
            </g>
        </g>
    </g>
</svg>